C:\Users\lingh\OneDrive - KTH\ExMaterials\7-Doctor\Research\2-simulation\PredSimResults\Falisse_et_al_20220.2weak\Falisse_et_al_2022_v1.mot
version=1
nRows=4
nColumns=124
inDegrees=yes
endheader
                time	         pelvis_tilt	         pelvis_list	     pelvis_rotation	           pelvis_tx	           pelvis_ty	           pelvis_tz	       hip_flexion_r	     hip_adduction_r	      hip_rotation_r	        knee_angle_r	       ankle_angle_r	    subtalar_angle_r	         mtp_angle_r	       hip_flexion_l	     hip_adduction_l	      hip_rotation_l	        knee_angle_l	       ankle_angle_l	    subtalar_angle_l	         mtp_angle_l	    lumbar_extension	      lumbar_bending	     lumbar_rotation	          arm_flex_r	           arm_add_r	           arm_rot_r	        elbow_flex_r	          arm_flex_l	           arm_add_l	           arm_rot_l	        elbow_flex_l	glut_med1_r/activation	glut_med2_r/activation	glut_med3_r/activation	glut_min1_r/activation	glut_min2_r/activation	glut_min3_r/activation	semimem_r/activation	semiten_r/activation	bifemlh_r/activation	bifemsh_r/activation	    sar_r/activation	add_long_r/activation	add_brev_r/activation	add_mag1_r/activation	add_mag2_r/activation	add_mag3_r/activation	    tfl_r/activation	   pect_r/activation	   grac_r/activation	glut_max1_r/activation	glut_max2_r/activation	glut_max3_r/activation	iliacus_r/activation	  psoas_r/activation	quad_fem_r/activation	    gem_r/activation	   peri_r/activation	rect_fem_r/activation	vas_med_r/activation	vas_int_r/activation	vas_lat_r/activation	med_gas_r/activation	lat_gas_r/activation	 soleus_r/activation	tib_post_r/activation	flex_dig_r/activation	flex_hal_r/activation	tib_ant_r/activation	per_brev_r/activation	per_long_r/activation	per_tert_r/activation	ext_dig_r/activation	ext_hal_r/activation	glut_med1_l/activation	glut_med2_l/activation	glut_med3_l/activation	glut_min1_l/activation	glut_min2_l/activation	glut_min3_l/activation	semimem_l/activation	semiten_l/activation	bifemlh_l/activation	bifemsh_l/activation	    sar_l/activation	add_long_l/activation	add_brev_l/activation	add_mag1_l/activation	add_mag2_l/activation	add_mag3_l/activation	    tfl_l/activation	   pect_l/activation	   grac_l/activation	glut_max1_l/activation	glut_max2_l/activation	glut_max3_l/activation	iliacus_l/activation	  psoas_l/activation	quad_fem_l/activation	    gem_l/activation	   peri_l/activation	rect_fem_l/activation	vas_med_l/activation	vas_int_l/activation	vas_lat_l/activation	med_gas_l/activation	lat_gas_l/activation	 soleus_l/activation	tib_post_l/activation	flex_dig_l/activation	flex_hal_l/activation	tib_ant_l/activation	per_brev_l/activation	per_long_l/activation	per_tert_l/activation	ext_dig_l/activation	ext_hal_l/activation	 ercspn_r/activation	 ercspn_l/activation	 intobl_r/activation	 intobl_l/activation	 extobl_r/activation	 extobl_l/activation	
          0.00000000	         -7.06679215	         -4.93164314	         11.99507074	          0.00000000	          0.89506364	         -0.01149924	         36.10703561	          1.47856373	         -1.28811136	        -14.38274103	         12.72538859	         -3.71073112	          0.28930334	        -16.03326591	         -6.12815133	          3.31503087	         -3.35789759	          1.73707773	          2.99357242	         35.14013987	          2.77575893	         -1.00510385	         -2.34110977	         -8.84649700	        -13.46087084	         19.36229707	          6.82720723	         11.64741825	        -13.44989056	         19.03228130	         76.29521459	          0.20020933	          0.05000061	          0.05000002	          0.17613674	          0.09570756	          0.05937473	          0.17199419	          0.05937506	          0.05937506	          0.08012693	          0.05346263	          0.09749610	          0.09942743	          0.07052451	          0.05766887	          0.32474746	          0.07412884	          0.08372833	          0.09164761	          0.05000002	          0.21460062	          0.22565323	          0.09942740	          0.09942738	          0.05000006	          0.05000014	          0.05000007	          0.05000004	          0.05000005	          0.10716497	          0.05000006	          0.05555279	          0.05460385	          0.05646529	          0.05000000	          0.05000000	          0.05000000	          0.67979654	          0.31500799	          0.18548139	          0.51273852	          0.66670833	          0.40123974	          0.05000008	          0.11807106	          0.13979892	          0.05000021	          0.08371909	          0.09942728	          0.05000002	          0.05000001	          0.05000000	          0.09605948	          0.05936907	          0.09105683	          0.07960188	          0.07241230	          0.05000031	          0.05000001	          0.07971150	          0.08983637	          0.07617894	          0.05000059	          0.06441183	          0.08372819	          0.25287020	          0.63932168	          0.11807024	          0.09945097	          0.11100749	          0.09942753	          0.05000009	          0.05000007	          0.05000007	          0.35163871	          0.55158684	          0.30851954	          0.59695106	          0.60521983	          0.60691079	          0.05000000	          0.05000004	          0.05000002	          0.05000000	          0.05000000	          0.05000000	          0.15500364	          0.05316126	          0.19113890	          0.05000000	          0.08372832	          0.05000000	
          0.01125008	         -7.06234261	         -4.60287158	         12.09799359	          0.01745664	          0.89275754	         -0.01228438	         36.06262662	          1.39120895	         -0.91824796	        -15.67979968	         12.09310087	         -3.97425925	          0.32989886	        -15.98955894	         -5.93465480	          2.97110610	         -5.53710792	          1.15083119	          3.42408210	         36.73678970	          2.85916776	         -0.75633498	         -2.28618037	         -9.92612782	        -13.46511877	         19.32656351	          6.17109896	         11.94973887	        -13.45018951	         19.24726436	         78.48007221	          0.16859716	          0.05000003	          0.05000029	          0.14832553	          0.08059578	          0.05000007	          0.14483706	          0.05000000	          0.05000000	          0.06747524	          0.05000028	          0.08210189	          0.08372828	          0.05938901	          0.05937507	          0.34750720	          0.07050800	          0.07050802	          0.07717686	          0.05000013	          0.24564948	          0.24748444	          0.08372826	          0.08372824	          0.07050814	          0.05000009	          0.05000022	          0.07050796	          0.13241776	          0.15546172	          0.14104830	          0.05000000	          0.05000000	          0.05000000	          0.07050795	          0.05937519	          0.06587251	          0.57245963	          0.33162331	          0.20081676	          0.43177935	          0.56143800	          0.33788574	          0.05000008	          0.09942816	          0.11772528	          0.05000028	          0.07050026	          0.08372816	          0.05000007	          0.05000002	          0.05000013	          0.08089211	          0.05000040	          0.11057883	          0.10339713	          0.13896942	          0.10079119	          0.13766732	          0.06712544	          0.07565173	          0.06415067	          0.05000043	          0.05424162	          0.07050793	          0.21294310	          0.58101073	          0.09942746	          0.08374810	          0.09347990	          0.08372836	          0.10824225	          0.13570054	          0.11501799	          0.29611649	          0.46449370	          0.29315017	          0.59170803	          0.61731438	          0.60932977	          0.05000000	          0.05000000	          0.05000000	          0.05000000	          0.05000000	          0.05000002	          0.13052927	          0.07348155	          0.16095890	          0.05000000	          0.07050799	          0.05000000	
          0.02250015	         -7.05145358	         -4.24328949	         12.15448163	          0.03524638	          0.89056552	         -0.01303289	         35.84672136	          1.32817206	         -0.52944867	        -17.34421672	         11.61841987	         -4.24112472	          0.26345413	        -15.83769245	         -5.71613860	          2.59463112	         -7.95173442	          0.45965654	          3.86827308	         38.07045128	          2.96747291	         -0.51683013	         -2.22495502	        -11.02794807	        -13.46556013	         19.29428595	          5.63713273	         12.14866864	        -13.45602856	         19.36421872	         80.43223265	          0.32945209	          0.18454760	          0.20762074	          0.12490571	          0.08402677	          0.20132913	          0.12196797	          0.07759702	          0.07906462	          0.07050809	          0.05937505	          0.06913836	          0.07050795	          0.05001175	          0.05000001	          0.35956699	          0.05937554	          0.05937514	          0.06499098	          0.05000263	          0.37892215	          0.30322790	          0.07050793	          0.07050792	          0.05937522	          0.05938971	          0.29975553	          0.05937506	          0.11150957	          0.13091499	          0.11877739	          0.05633453	          0.05937505	          0.05481011	          0.05937505	          0.05000012	          0.05547154	          0.69809437	          0.30852741	          0.19789527	          0.36360328	          0.68769717	          0.38508959	          0.07337912	          0.08372889	          0.09913697	          0.05000032	          0.05936865	          0.07050786	          0.05000036	          0.05000003	          0.05000001	          0.06811960	          0.05000018	          0.14405242	          0.17419741	          0.11702682	          0.12401336	          0.17473643	          0.05652668	          0.06370671	          0.05402158	          0.05000043	          0.05000030	          0.05937507	          0.20374570	          0.57555170	          0.08372830	          0.07052464	          0.07871983	          0.07050802	          0.09115131	          0.11427404	          0.09685718	          0.24936099	          0.39115217	          0.27454497	          0.54906075	          0.54981402	          0.55387687	          0.05000000	          0.05000000	          0.05000000	          0.05000000	          0.05000000	          0.05000002	          0.10991927	          0.09897983	          0.17462645	          0.05000000	          0.05937508	          0.05000000	
          0.03375023	         -7.03694269	         -3.87134284	         12.15256599	          0.05312193	          0.88861734	         -0.01371231	         35.52053784	          1.28039327	         -0.15415665	        -18.91291205	         11.29139414	         -4.52514633	          0.25385929	        -15.52904747	         -5.48661621	          2.17981803	        -10.64774487	         -0.29210334	          4.31907941	         38.94965704	          3.08173652	         -0.26834382	         -2.15852381	        -12.08981004	        -13.46486121	         19.26068284	          5.19011700	         12.26539256	        -13.46061380	         19.38347498	         82.11715838	          0.54731711	          0.47903810	          0.48506996	          0.29348568	          0.32390432	          0.35003893	          0.10270976	          0.09289751	          0.07172714	          0.05937517	          0.05000011	          0.05822172	          0.05937505	          0.05000002	          0.05000408	          0.38351250	          0.05000046	          0.05000012	          0.05472923	          0.33200823	          0.45037176	          0.35741399	          0.05937504	          0.05937502	          0.05000014	          0.05001236	          0.25242562	          0.05000000	          0.09390272	          0.14876641	          0.17503792	          0.05000000	          0.05000000	          0.05000000	          0.05000000	          0.05000001	          0.05000001	          0.77433805	          0.35833630	          0.18317501	          0.63634576	          0.71093326	          0.49095392	          0.16649779	          0.07050846	          0.08348368	          0.14020802	          0.05000019	          0.05937499	          0.05002332	          0.05000001	          0.05000000	          0.05736381	          0.05000017	          0.16608591	          0.21420437	          0.09854883	          0.10443255	          0.18842588	          0.05000017	          0.05364781	          0.05000002	          0.05000029	          0.05000006	          0.05000005	          0.19418930	          0.54400754	          0.07050797	          0.05938911	          0.06629032	          0.05937511	          0.10894519	          0.11447952	          0.09942764	          0.20998797	          0.32939095	          0.25813180	          0.51593935	          0.50824473	          0.51738341	          0.05000000	          0.05000002	          0.05104059	          0.05000001	          0.05000000	          0.05000002	          0.10518700	          0.13649508	          0.16649785	          0.05000000	          0.05000002	          0.05000000	
